<?xml version="1.0" encoding="utf-8"?>
<!-- Generator: Adobe Illustrator 24.2.0, SVG Export Plug-In . SVG Version: 6.00 Build 0)  -->
<svg version="1.1" xmlns="http://www.w3.org/2000/svg" xmlns:xlink="http://www.w3.org/1999/xlink" x="0px" y="0px"
	 viewBox="0 0 1125 2436" style="enable-background:new 0 0 1125 2436;" xml:space="preserve">
<style type="text/css">
	.st0{stroke:#FFFFFF;stroke-miterlimit:10;}
	.st1{fill:none;stroke:#999999;stroke-width:36;stroke-miterlimit:10;}
	.st2{fill:#65C48B;}
	.st3{fill:#FFFFFF;stroke:#000000;stroke-width:4;stroke-miterlimit:10;}
	.st4{enable-background:new    ;}
	.st5{fill:#F2F2F2;}
</style>
<g id="Layer_1">
	<rect x="-0.5" y="-0.5" class="st0" width="1126" height="2437"/>
</g>
<g id="Layer_2">
	<g id="Layer_1_1_">
		<path class="st1" d="M372.32,961.24c-1.12-103.75,78.17-187.74,170.29-193.88c102.82-6.81,200.22,84.72,195.33,201.28"/>
		<path class="st2" d="M778.92,940.22c15.07-0.2,22,341.64,14.8,346.92c-52.86,38.72-413.27,34.3-467.32-7.6
			c-15.99-12.49-17.31-333.05-0.4-333.25L778.92,940.22z"/>
		<path class="st3" d="M590.45,1103.11c6.34,13.48,10.18,30.79,10.18,49.69c0,42.89-19.63,77.71-43.88,77.71
			s-43.88-34.82-43.88-77.71c0-18.9,3.83-36.21,10.18-49.69c-8.52-8.59-13.81-20.42-13.81-33.5c0-26.23,21.28-47.51,47.51-47.51
			c26.23,0,47.51,21.28,47.51,47.51C604.26,1082.76,598.98,1094.59,590.45,1103.11z"/>
		<g class="st4">
			<path class="st5" d="M411.88,1577.46l2.8-8.66c6.46,2.28,11.16,4.25,14.09,5.92c-0.77-7.36-1.18-12.42-1.22-15.18h8.84
				c-0.12,4.02-0.59,9.07-1.4,15.12c4.19-2.11,8.98-4.06,14.39-5.85l2.81,8.66c-5.16,1.71-10.22,2.85-15.18,3.42
				c2.48,2.16,5.98,6,10.49,11.53l-7.32,5.18c-2.36-3.21-5.14-7.58-8.35-13.11c-3.01,5.73-5.65,10.1-7.93,13.11l-7.2-5.18
				c4.72-5.81,8.09-9.66,10.12-11.53C421.57,1579.86,416.59,1578.73,411.88,1577.46z"/>
			<path class="st5" d="M460.48,1577.46l2.8-8.66c6.46,2.28,11.16,4.25,14.09,5.92c-0.77-7.36-1.18-12.42-1.22-15.18h8.84
				c-0.12,4.02-0.59,9.07-1.4,15.12c4.19-2.11,8.98-4.06,14.39-5.85l2.81,8.66c-5.16,1.71-10.22,2.85-15.18,3.42
				c2.48,2.16,5.98,6,10.49,11.53l-7.32,5.18c-2.36-3.21-5.14-7.58-8.35-13.11c-3.01,5.73-5.65,10.1-7.93,13.11l-7.2-5.18
				c4.72-5.81,8.09-9.66,10.12-11.53C470.17,1579.86,465.19,1578.73,460.48,1577.46z"/>
			<path class="st5" d="M509.08,1577.46l2.8-8.66c6.46,2.28,11.16,4.25,14.09,5.92c-0.77-7.36-1.18-12.42-1.22-15.18h8.84
				c-0.12,4.02-0.59,9.07-1.4,15.12c4.19-2.11,8.98-4.06,14.39-5.85l2.81,8.66c-5.16,1.71-10.22,2.85-15.18,3.42
				c2.48,2.16,5.98,6,10.49,11.53l-7.32,5.18c-2.36-3.21-5.14-7.58-8.35-13.11c-3.01,5.73-5.65,10.1-7.93,13.11l-7.2-5.18
				c4.72-5.81,8.09-9.66,10.12-11.53C518.78,1579.86,513.8,1578.73,509.08,1577.46z"/>
			<path class="st5" d="M557.68,1577.46l2.8-8.66c6.46,2.28,11.16,4.25,14.09,5.92c-0.77-7.36-1.18-12.42-1.22-15.18h8.84
				c-0.12,4.02-0.59,9.07-1.4,15.12c4.19-2.11,8.98-4.06,14.39-5.85l2.81,8.66c-5.16,1.71-10.22,2.85-15.18,3.42
				c2.48,2.16,5.98,6,10.49,11.53l-7.32,5.18c-2.36-3.21-5.14-7.58-8.35-13.11c-3.01,5.73-5.65,10.1-7.93,13.11l-7.2-5.18
				c4.72-5.81,8.09-9.66,10.12-11.53C567.38,1579.86,562.4,1578.73,557.68,1577.46z"/>
			<path class="st5" d="M606.28,1577.46l2.8-8.66c6.46,2.28,11.16,4.25,14.09,5.92c-0.77-7.36-1.18-12.42-1.22-15.18h8.84
				c-0.12,4.02-0.59,9.07-1.4,15.12c4.19-2.11,8.98-4.06,14.39-5.85l2.81,8.66c-5.16,1.71-10.22,2.85-15.18,3.42
				c2.48,2.16,5.98,6,10.49,11.53l-7.32,5.18c-2.36-3.21-5.14-7.58-8.35-13.11c-3.01,5.73-5.65,10.1-7.93,13.11l-7.2-5.18
				c4.72-5.81,8.09-9.66,10.12-11.53C615.98,1579.86,611,1578.73,606.28,1577.46z"/>
			<path class="st5" d="M654.89,1577.46l2.81-8.66c6.46,2.28,11.16,4.25,14.09,5.92c-0.77-7.36-1.18-12.42-1.22-15.18h8.84
				c-0.12,4.02-0.59,9.07-1.4,15.12c4.19-2.11,8.98-4.06,14.39-5.85l2.81,8.66c-5.16,1.71-10.23,2.85-15.18,3.42
				c2.48,2.16,5.98,6,10.49,11.53l-7.32,5.18c-2.36-3.21-5.14-7.58-8.35-13.11c-3.01,5.73-5.65,10.1-7.93,13.11l-7.2-5.18
				c4.72-5.81,8.09-9.66,10.12-11.53C664.58,1579.86,659.6,1578.73,654.89,1577.46z"/>
		</g>
	</g>
</g>
</svg>
