<?xml version="1.0" encoding="utf-8"?><!-- Generator: Adobe Illustrator 24.1.2, SVG Export Plug-In . SVG Version: 6.00 Build 0)  -->
<svg version="1.2" baseProfile="tiny" id="svg2" inkscape:version="0.91 r13725"
    sodipodi:docname="Apple_1998.svg" xmlns:cc="http://creativecommons.org/ns#"
    xmlns:dc="http://purl.org/dc/elements/1.1/"
    xmlns:inkscape="http://www.inkscape.org/namespaces/inkscape"
    xmlns:rdf="http://www.w3.org/1999/02/22-rdf-syntax-ns#"
    xmlns:sodipodi="http://sodipodi.sourceforge.net/DTD/sodipodi-0.dtd"
    xmlns:svg="http://www.w3.org/2000/svg" xmlns="http://www.w3.org/2000/svg"
    xmlns:xlink="http://www.w3.org/1999/xlink" x="0px" y="0px" viewBox="0 0 48 48"
    overflow="visible" xml:space="preserve">
<sodipodi:namedview bordercolor="#666666" borderopacity="1" gridtolerance="10" guidetolerance="10"
    id="namedview6" inkscape:current-layer="svg2" inkscape:cx="-1066.5045" inkscape:cy="964.94669"
    inkscape:pageopacity="0" inkscape:pageshadow="2" inkscape:window-height="705"
    inkscape:window-maximized="1" inkscape:window-width="1366" inkscape:window-x="-8"
    inkscape:window-y="-8" inkscape:zoom="0.1767767" objecttolerance="10" pagecolor="#ffffff"
    showgrid="false">
	</sodipodi:namedview>
    <path id="path4" inkscape:connector-curvature="0" d="M42.7,37c-0.7,1.6-1.5,3.1-2.5,4.5c-1.3,1.9-2.4,3.2-3.2,3.9
	c-1.3,1.2-2.7,1.8-4.1,1.8c-1.1,0-2.3-0.3-3.8-0.9c-1.5-0.6-2.9-0.9-4.1-0.9c-1.3,0-2.7,0.3-4.2,0.9c-1.5,0.6-2.7,0.9-3.6,1
	c-1.4,0.1-2.8-0.6-4.2-1.9c-0.9-0.8-2-2.1-3.4-4C8.2,39.4,7,37,6,34.3c-1-2.9-1.5-5.7-1.5-8.4c0-3.1,0.7-5.8,2-8
	c1.1-1.8,2.5-3.2,4.2-4.3c1.8-1,3.7-1.6,5.7-1.6c1.1,0,2.6,0.3,4.4,1s3,1,3.5,1c0.4,0,1.7-0.4,3.9-1.2c2.1-0.7,3.8-1.1,5.3-0.9
	c3.9,0.3,6.8,1.9,8.8,4.6c-3.5,2.1-5.2,5.1-5.2,8.9c0,3,1.1,5.4,3.2,7.4c1,0.9,2,1.6,3.2,2.1C43.3,35.6,43,36.3,42.7,37L42.7,37z
	 M33.8,1.7c0,2.3-0.8,4.5-2.5,6.5c-2,2.4-4.5,3.8-7.2,3.5c0-0.3-0.1-0.6-0.1-0.9c0-2.2,1-4.6,2.7-6.6c0.9-1,2-1.8,3.3-2.5
	c1.3-0.6,2.6-1,3.8-1.1C33.8,1.1,33.8,1.4,33.8,1.7L33.8,1.7z" />
</svg>
