<?xml version="1.0" encoding="utf-8"?>
<!-- Generator: Adobe Illustrator 24.1.2, SVG Export Plug-In . SVG Version: 6.00 Build 0)  -->
<svg version="1.1" id="Layer_1" xmlns="http://www.w3.org/2000/svg" xmlns:xlink="http://www.w3.org/1999/xlink" x="0px" y="0px"
	 viewBox="0 0 48 48" enable-background="new 0 0 48 48" xml:space="preserve">
<g>
	<g>
		<defs>
			<rect id="SVGID_1_" x="1.3" y="7.3" width="45.3" height="33.4"/>
		</defs>
		<clipPath id="SVGID_2_">
			<use xlink:href="#SVGID_1_"  overflow="visible"/>
		</clipPath>
		<path clip-path="url(#SVGID_2_)" fill="#DA1F26" d="M46.7,23.3v1.5c0,0.1,0,0.2,0,0.2c-0.1,0.6-0.1,1.3-0.2,1.9
			c-0.3,2.1-1.1,4-2.2,5.8c-1.7,2.7-4,4.8-6.9,6.2c-1.7,0.8-3.5,1.4-5.3,1.6c-0.4,0-0.8,0.1-1.2,0.1H14.8c-0.1,0-0.2,0-0.2,0
			c-1.6-0.1-3.1-0.5-4.6-1.1c-3.2-1.4-5.6-3.7-7.2-6.8c-0.7-1.4-1.1-2.9-1.3-4.4c0-0.4-0.1-0.7-0.1-1.1v-1.4c0-0.1,0-0.2,0-0.2
			c0.1-1.4,0.4-2.7,0.9-4c1.3-3.6,3.7-6.2,7-7.9c1.7-0.9,3.6-1.3,5.5-1.4c0.9,0,1.9,0,2.8,0.1c0.1,0,0.2,0,0.3-0.1
			c1.4-1.4,2.9-2.5,4.6-3.4c1.7-0.8,3.5-1.4,5.3-1.6c0.4-0.1,0.9-0.1,1.3-0.1h1.4c0.1,0,0.2,0,0.3,0c0.7,0.1,1.3,0.1,2,0.2
			c2.1,0.3,4,1.1,5.8,2.2c2.7,1.7,4.8,4,6.3,6.9c0.8,1.7,1.4,3.5,1.6,5.3C46.6,22.4,46.6,22.8,46.7,23.3 M21.3,13.6
			C21.3,13.6,21.4,13.7,21.3,13.6c1,0.5,1.9,1.1,2.7,1.7c0.1,0,0.2,0,0.2,0c2.3-1.5,4.8-2,7.5-1.5c2.6,0.5,4.8,1.8,6.4,3.9
			c1.9,2.4,2.6,5.1,2,8.1c-0.3,2-1.1,3.8-2.5,5.3c-2.5,2.7-5.6,3.9-9.3,3.4c-2.3-0.3-4.2-1.3-5.8-2.9c-2.1-2.1-4.2-4.2-6.2-6.3
			c-0.3-0.3-0.6-0.5-1-0.6c-0.7-0.1-1.3,0.3-1.6,0.9s-0.2,1.2,0.3,1.8c2.3,2.3,4.6,4.6,6.9,6.8c0.4,0.4,0.8,0.8,1.3,1.1
			c1.7,1.2,3.6,1.9,5.7,2.2c1.6,0.2,3.2,0.2,4.8-0.2c3-0.7,5.6-2.2,7.6-4.6c1.6-2,2.6-4.3,3-6.8c0.2-1.5,0.2-2.9-0.1-4.4
			c-0.5-2.4-1.5-4.5-3.1-6.3c-3.1-3.4-6.9-5-11.5-4.6c-1.8,0.1-3.4,0.6-5,1.5C22.8,12.5,22.1,13,21.3,13.6 M20.2,37.5
			c-0.1-0.1-0.1-0.1-0.2-0.2c-0.9-0.9-1.9-1.8-2.8-2.7c-0.2-0.2-0.3-0.3-0.6-0.3c-0.9,0-1.9,0-2.8-0.2C9.2,33,6.5,28,8.2,23.6
			c1.4-3.5,5.1-5.6,8.8-5c1.7,0.3,3.1,1,4.3,2.2c1.5,1.5,2.9,3,4.4,4.4c0.3,0.3,0.7,0.5,1.2,0.4c0.6-0.1,1.1-0.4,1.3-1
			c0.2-0.6,0.1-1.1-0.3-1.6c-1.5-1.6-3-3.2-4.6-4.7c-3.1-2.9-6.8-3.8-10.8-2.5C7,17.5,3.9,23.1,5.1,28.6c1.1,5.1,5.6,8.6,10.7,8.6
			c1.4,0,2.9,0,4.3,0C20,37.5,20.1,37.5,20.2,37.5"/>
	</g>
</g>
</svg>
