<?xml version="1.0" encoding="utf-8"?><!-- Generator: Adobe Illustrator 24.1.2, SVG Export Plug-In . SVG Version: 6.00 Build 0)  -->
<svg version="1.2" baseProfile="tiny" id="Layer_1" xmlns="http://www.w3.org/2000/svg"
    xmlns:xlink="http://www.w3.org/1999/xlink" x="0px" y="0px" viewBox="0 0 47 48"
    overflow="visible" xml:space="preserve">
<path fill="#4285F4" d="M46.8,24.5c0-1.6-0.1-3.2-0.4-4.8H24v9.1h12.8c-0.5,2.9-2.2,5.6-4.7,7.2v6h7.7
	C44.2,37.9,46.8,31.8,46.8,24.5L46.8,24.5z" />
    <path fill="#34A853" d="M24,47.7c6.4,0,11.8-2.1,15.7-5.7L32,36.1c-2.1,1.4-4.9,2.3-8.1,2.3c-6.2,0-11.4-4.2-13.3-9.8H2.7v6.1
	C6.8,42.7,15,47.7,24,47.7z" />
    <path fill="#FBBC04"
        d="M10.6,28.6c-1-2.9-1-6.1,0-9.1v-6.1H2.7c-3.4,6.7-3.4,14.6,0,21.3L10.6,28.6z" />
    <path fill="#EA4335" d="M24,9.7c3.4-0.1,6.7,1.2,9.1,3.6l6.8-6.8c-4.3-4-10-6.2-15.9-6.2c-9,0-17.2,5.1-21.2,13.1l7.9,6.1
	C12.5,13.8,17.8,9.7,24,9.7z" />
</svg>
