<?xml version="1.0" encoding="utf-8"?>
<!-- Generator: Adobe Illustrator 24.1.2, SVG Export Plug-In . SVG Version: 6.00 Build 0)  -->
<svg version="1.0" id="Layer_1" xmlns="http://www.w3.org/2000/svg" xmlns:xlink="http://www.w3.org/1999/xlink" x="0px" y="0px"
	 viewBox="0 0 59 36.3" enable-background="new 0 0 59 36.3" xml:space="preserve">
<path opacity="0.6" fill="#649664" enable-background="new    " d="M53.2,35.7H5.5c-2.8,0-5-2.3-5-5v-25c0-2.8,2.3-5,5-5h47.7
	c2.8,0,5,2.3,5,5v25C58.2,33.4,56,35.7,53.2,35.7z"/>
<path fill="none" d="M4.5,13.6h5.8v5.8H4.5V13.6z"/>
<path opacity="0.6" enable-background="new    " d="M7.4,12.5c0.5,0,1-0.4,1-1s-0.4-1-1-1s-1,0.4-1,1S6.9,12.5,7.4,12.5z M7.4,13
	c-0.6,0-1.9,0.3-1.9,1v0.5h3.9V14C9.3,13.4,8,13,7.4,13z"/>
<path fill="none" d="M4.6,24.2h5.7v5.7H4.6V24.2z"/>
<path opacity="0.6" enable-background="new    " d="M8.9,22.1H8.6v-0.5c0-0.7-0.5-1.2-1.2-1.2S6.3,21,6.3,21.6v0.5H6
	c-0.3,0-0.5,0.2-0.5,0.5V25c0,0.3,0.2,0.5,0.5,0.5h2.8c0.3,0,0.5-0.2,0.5-0.5v-2.4C9.3,22.3,9.1,22.1,8.9,22.1z M7.5,24.2
	C7.2,24.2,7,24,7,23.8c0-0.3,0.2-0.5,0.5-0.5S8,23.5,8,23.8C7.9,24,7.7,24.2,7.5,24.2z M8.2,22.1H6.7v-0.5c0-0.4,0.3-0.7,0.7-0.7
	c0.4,0,0.7,0.3,0.7,0.7v0.5H8.2z"/>
<line opacity="0.6" fill="none" stroke="#649664" stroke-miterlimit="10" enable-background="new    " x1="13" y1="12.6" x2="43.8" y2="12.6"/>
<line opacity="0.6" fill="none" stroke="#649664" stroke-miterlimit="10" enable-background="new    " x1="13" y1="23.1" x2="43.8" y2="23.1"/>
</svg>
