<?xml version="1.0" encoding="utf-8"?>
<!-- Generator: Adobe Illustrator 24.1.2, SVG Export Plug-In . SVG Version: 6.00 Build 0)  -->
<svg version="1.1" id="Layer_1" xmlns="http://www.w3.org/2000/svg" xmlns:xlink="http://www.w3.org/1999/xlink" x="0px" y="0px"
	 viewBox="0 0 48.1 48" enable-background="new 0 0 48.1 48" xml:space="preserve">
<radialGradient id="SVGID_1_" cx="159.397" cy="-588.3891" r="22.3592" gradientTransform="matrix(0 -1.982 -1.8439 0 -1071.3705 365.7248)" gradientUnits="userSpaceOnUse">
	<stop  offset="0" style="stop-color:#FFDD55"/>
	<stop  offset="0.1" style="stop-color:#FFDD55"/>
	<stop  offset="0.5" style="stop-color:#FF543E"/>
	<stop  offset="1" style="stop-color:#C837AB"/>
</radialGradient>
<path fill="url(#SVGID_1_)" d="M24.1,1.6c-9.3,0-12.1,0-12.6,0.1C9.5,1.9,8.3,2.2,7,2.8C6,3.3,5.3,3.9,4.5,4.7
	C3.1,6.2,2.2,8,1.9,10.1c-0.2,1-0.2,1.3-0.2,6.6c0,1.8,0,4.1,0,7.3c0,9.3,0,12.1,0.1,12.6c0.2,1.9,0.4,3,1.1,4.3
	c1.2,2.5,3.4,4.3,6.1,5c0.9,0.2,1.9,0.4,3.2,0.4c0.6,0,6.2,0,11.8,0s11.3,0,11.8,0c1.5-0.1,2.4-0.2,3.4-0.4c2.7-0.7,4.9-2.5,6.1-5
	c0.6-1.3,0.9-2.5,1.1-4.2c0-0.4,0-6.5,0-12.7c0-6.1,0-12.3,0-12.7c-0.1-1.8-0.4-3-1.1-4.3c-0.5-1-1.1-1.8-1.9-2.6
	c-1.5-1.4-3.3-2.3-5.4-2.6c-1-0.2-1.3-0.2-6.6-0.2H24.1z"/>
<radialGradient id="SVGID_2_" cx="154.8466" cy="-468.7259" r="22.3592" gradientTransform="matrix(0.1739 0.8687 3.5818 -0.7172 1646.1361 -465.8135)" gradientUnits="userSpaceOnUse">
	<stop  offset="0" style="stop-color:#3771C8"/>
	<stop  offset="0.128" style="stop-color:#3771C8"/>
	<stop  offset="1" style="stop-color:#6600FF;stop-opacity:0"/>
</radialGradient>
<path fill="url(#SVGID_2_)" d="M24.1,1.6c-9.3,0-12.1,0-12.6,0.1C9.5,1.9,8.3,2.2,7,2.8C6,3.3,5.3,3.9,4.5,4.7
	C3.1,6.2,2.2,8,1.9,10.1c-0.2,1-0.2,1.3-0.2,6.6c0,1.8,0,4.1,0,7.3c0,9.3,0,12.1,0.1,12.6c0.2,1.9,0.4,3,1.1,4.3
	c1.2,2.5,3.4,4.3,6.1,5c0.9,0.2,1.9,0.4,3.2,0.4c0.6,0,6.2,0,11.8,0s11.3,0,11.8,0c1.5-0.1,2.4-0.2,3.4-0.4c2.7-0.7,4.9-2.5,6.1-5
	c0.6-1.3,0.9-2.5,1.1-4.2c0-0.4,0-6.5,0-12.7c0-6.1,0-12.3,0-12.7c-0.1-1.8-0.4-3-1.1-4.3c-0.5-1-1.1-1.8-1.9-2.6
	c-1.5-1.4-3.3-2.3-5.4-2.6c-1-0.2-1.3-0.2-6.6-0.2H24.1z"/>
<path fill="#FFFFFF" d="M24,7.5c-4.5,0-5,0-6.8,0.1c-1.8,0.1-3,0.4-4,0.8c-1.1,0.4-2,1-2.9,1.9c-0.9,0.9-1.5,1.8-1.9,2.9
	c-0.4,1.1-0.7,2.3-0.8,4C7.5,19,7.5,19.5,7.5,24s0,5,0.1,6.8c0.1,1.8,0.4,3,0.8,4c0.4,1.1,1,2,1.9,2.9c0.9,0.9,1.8,1.5,2.9,1.9
	c1.1,0.4,2.3,0.7,4,0.8c1.8,0.1,2.3,0.1,6.8,0.1c4.5,0,5,0,6.8-0.1c1.8-0.1,3-0.4,4-0.8c1.1-0.4,2-1,2.9-1.9
	c0.9-0.9,1.5-1.8,1.9-2.9c0.4-1.1,0.7-2.3,0.8-4c0.1-1.8,0.1-2.3,0.1-6.8s0-5-0.1-6.8c-0.1-1.8-0.4-3-0.8-4c-0.4-1.1-1-2-1.9-2.9
	c-0.9-0.9-1.8-1.5-2.9-1.9c-1.1-0.4-2.3-0.7-4-0.8C29.1,7.5,28.5,7.5,24,7.5L24,7.5z M22.6,10.5c0.4,0,0.9,0,1.5,0
	c4.4,0,4.9,0,6.7,0.1c1.6,0.1,2.5,0.3,3.1,0.6c0.8,0.3,1.3,0.7,1.9,1.2c0.6,0.6,0.9,1.1,1.2,1.9c0.2,0.6,0.5,1.5,0.6,3.1
	c0.1,1.7,0.1,2.3,0.1,6.7s0,4.9-0.1,6.7c-0.1,1.6-0.3,2.5-0.6,3.1c-0.3,0.8-0.7,1.3-1.2,1.9c-0.6,0.6-1.1,0.9-1.9,1.2
	c-0.6,0.2-1.5,0.5-3.1,0.6c-1.7,0.1-2.3,0.1-6.7,0.1c-4.4,0-4.9,0-6.7-0.1c-1.6-0.1-2.5-0.3-3.1-0.6c-0.8-0.3-1.3-0.7-1.9-1.2
	c-0.6-0.6-0.9-1.1-1.2-1.9c-0.2-0.6-0.5-1.5-0.6-3.1c-0.1-1.7-0.1-2.3-0.1-6.7s0-4.9,0.1-6.7c0.1-1.6,0.3-2.5,0.6-3.1
	c0.3-0.8,0.7-1.3,1.2-1.9c0.6-0.6,1.1-0.9,1.9-1.2c0.6-0.2,1.5-0.5,3.1-0.6C18.9,10.5,19.5,10.5,22.6,10.5L22.6,10.5z M32.9,13.2
	c-1.1,0-2,0.9-2,2c0,1.1,0.9,2,2,2s2-0.9,2-2S33.9,13.2,32.9,13.2L32.9,13.2z M24,15.5c-4.7,0-8.5,3.8-8.5,8.5s3.8,8.5,8.5,8.5
	c4.7,0,8.5-3.8,8.5-8.5S28.7,15.5,24,15.5L24,15.5z M24,18.5c3,0,5.5,2.5,5.5,5.5c0,3-2.5,5.5-5.5,5.5c-3,0-5.5-2.5-5.5-5.5
	C18.5,21,21,18.5,24,18.5z"/>
</svg>
