<?xml version="1.0" encoding="utf-8"?>
<!-- Generator: Adobe Illustrator 24.1.2, SVG Export Plug-In . SVG Version: 6.00 Build 0)  -->
<svg version="1.0" id="Layer_1" xmlns="http://www.w3.org/2000/svg" xmlns:xlink="http://www.w3.org/1999/xlink" x="0px" y="0px"
	 viewBox="0 0 48 48" style="enable-background:new 0 0 48 48;" xml:space="preserve">
<style type="text/css">
	.st0{fill:url(#SVGID_1_);}
	.st1{fill:url(#SVGID_2_);}
	.st2{fill:#FFFFFF;}
</style>
<radialGradient id="SVGID_1_" cx="224.1221" cy="-522.1472" r="22.1538" gradientTransform="matrix(0 -1.982 -1.8439 0 -949.1737 493.7697)" gradientUnits="userSpaceOnUse">
	<stop  offset="0" style="stop-color:#FFDD55"/>
	<stop  offset="0.1" style="stop-color:#FFDD55"/>
	<stop  offset="0.5" style="stop-color:#FF543E"/>
	<stop  offset="1" style="stop-color:#C837AB"/>
</radialGradient>
<path class="st0" d="M24.01,1.85c-9.25,0-11.96,0.01-12.48,0.05C9.63,2.06,8.45,2.36,7.16,3C6.17,3.49,5.38,4.06,4.61,4.86
	c-1.41,1.46-2.26,3.25-2.57,5.39c-0.15,1.04-0.19,1.25-0.2,6.54c0,1.76,0,4.09,0,7.2c0,9.24,0.01,11.95,0.05,12.47
	c0.15,1.85,0.44,3.01,1.06,4.28C4.13,43.18,6.37,45,9,45.68c0.91,0.24,1.92,0.36,3.22,0.43c0.55,0.02,6.14,0.04,11.74,0.04
	s11.19-0.01,11.73-0.03c1.5-0.07,2.37-0.19,3.33-0.44c2.66-0.69,4.85-2.48,6.05-4.95c0.6-1.24,0.91-2.45,1.04-4.2
	c0.03-0.38,0.04-6.47,0.04-12.55c0-6.08-0.01-12.15-0.04-12.54c-0.14-1.78-0.44-2.98-1.07-4.24c-0.51-1.04-1.08-1.81-1.9-2.6
	c-1.47-1.4-3.26-2.25-5.39-2.56c-1.04-0.15-1.24-0.19-6.54-0.2H24.01z"/>
<radialGradient id="SVGID_2_" cx="140.9005" cy="-434.8801" r="22.1538" gradientTransform="matrix(0.1739 0.8687 3.5818 -0.7172 1527.5642 -429.2507)" gradientUnits="userSpaceOnUse">
	<stop  offset="0" style="stop-color:#3771C8"/>
	<stop  offset="0.128" style="stop-color:#3771C8"/>
	<stop  offset="1" style="stop-color:#6600FF;stop-opacity:0"/>
</radialGradient>
<path class="st1" d="M24.01,1.85c-9.25,0-11.96,0.01-12.48,0.05C9.63,2.06,8.45,2.36,7.16,3C6.17,3.49,5.38,4.06,4.61,4.86
	c-1.41,1.46-2.26,3.25-2.57,5.39c-0.15,1.04-0.19,1.25-0.2,6.54c0,1.76,0,4.09,0,7.2c0,9.24,0.01,11.95,0.05,12.47
	c0.15,1.85,0.44,3.01,1.06,4.28C4.13,43.18,6.37,45,9,45.68c0.91,0.24,1.92,0.36,3.22,0.43c0.55,0.02,6.14,0.04,11.74,0.04
	s11.19-0.01,11.73-0.03c1.5-0.07,2.37-0.19,3.33-0.44c2.66-0.69,4.85-2.48,6.05-4.95c0.6-1.24,0.91-2.45,1.04-4.2
	c0.03-0.38,0.04-6.47,0.04-12.55c0-6.08-0.01-12.15-0.04-12.54c-0.14-1.78-0.44-2.98-1.07-4.24c-0.51-1.04-1.08-1.81-1.9-2.6
	c-1.47-1.4-3.26-2.25-5.39-2.56c-1.04-0.15-1.24-0.19-6.54-0.2H24.01z"/>
<path class="st2" d="M24,7.64c-4.44,0-5,0.02-6.75,0.1c-1.74,0.08-2.93,0.36-3.97,0.76c-1.08,0.42-1.99,0.98-2.9,1.89
	c-0.91,0.91-1.47,1.82-1.89,2.9c-0.41,1.04-0.68,2.23-0.76,3.97C7.66,19,7.64,19.56,7.64,24s0.02,5,0.1,6.74
	c0.08,1.74,0.36,2.93,0.76,3.97c0.42,1.08,0.98,1.99,1.89,2.9c0.91,0.91,1.82,1.47,2.9,1.89c1.04,0.4,2.23,0.68,3.97,0.76
	c1.75,0.08,2.3,0.1,6.74,0.1c4.44,0,5-0.02,6.74-0.1c1.74-0.08,2.93-0.36,3.97-0.76c1.08-0.42,1.99-0.98,2.9-1.89
	c0.91-0.91,1.47-1.82,1.89-2.9c0.4-1.04,0.68-2.23,0.76-3.97c0.08-1.75,0.1-2.3,0.1-6.74s-0.02-5-0.1-6.75
	c-0.08-1.74-0.36-2.93-0.76-3.97c-0.42-1.08-0.98-1.99-1.89-2.9c-0.91-0.91-1.82-1.47-2.9-1.89c-1.04-0.4-2.23-0.68-3.97-0.76
	C28.99,7.66,28.44,7.64,24,7.64L24,7.64z M22.53,10.59c0.44,0,0.92,0,1.47,0c4.37,0,4.89,0.02,6.61,0.09
	c1.6,0.07,2.46,0.34,3.04,0.56c0.76,0.3,1.31,0.65,1.88,1.22c0.57,0.57,0.93,1.12,1.22,1.88c0.22,0.58,0.49,1.44,0.56,3.04
	c0.08,1.72,0.1,2.24,0.1,6.61s-0.02,4.88-0.1,6.61c-0.07,1.6-0.34,2.46-0.56,3.04c-0.3,0.76-0.65,1.31-1.22,1.88
	c-0.57,0.57-1.12,0.93-1.88,1.22c-0.58,0.22-1.44,0.49-3.04,0.56c-1.72,0.08-2.24,0.1-6.61,0.1c-4.37,0-4.89-0.02-6.61-0.1
	c-1.6-0.07-2.46-0.34-3.04-0.56c-0.76-0.3-1.31-0.65-1.88-1.22c-0.57-0.57-0.93-1.12-1.22-1.88c-0.22-0.58-0.49-1.44-0.56-3.04
	c-0.08-1.72-0.09-2.24-0.09-6.61s0.02-4.88,0.09-6.61c0.07-1.6,0.34-2.46,0.56-3.04c0.3-0.76,0.65-1.31,1.22-1.88
	c0.57-0.57,1.12-0.93,1.88-1.22c0.58-0.22,1.44-0.49,3.04-0.56C18.9,10.61,19.48,10.59,22.53,10.59L22.53,10.59z M32.73,13.31
	c-1.08,0-1.96,0.88-1.96,1.96c0,1.08,0.88,1.96,1.96,1.96s1.96-0.88,1.96-1.96S33.81,13.31,32.73,13.31L32.73,13.31z M24,15.6
	c-4.64,0-8.4,3.76-8.4,8.4s3.76,8.4,8.4,8.4c4.64,0,8.4-3.76,8.4-8.4S28.64,15.6,24,15.6L24,15.6z M24,18.55
	c3.01,0,5.45,2.44,5.45,5.45c0,3.01-2.44,5.45-5.45,5.45c-3.01,0-5.45-2.44-5.45-5.45C18.54,20.99,20.99,18.55,24,18.55z"/>
</svg>
