<?xml version="1.0" encoding="utf-8"?><!-- Generator: Adobe Illustrator 24.1.2, SVG Export Plug-In . SVG Version: 6.00 Build 0)  -->
<svg version="1.0" xmlns="http://www.w3.org/2000/svg" xmlns:xlink="http://www.w3.org/1999/xlink"
    x="0px" y="0px" viewBox="0 0 512 512" enable-background="new 0 0 512 512" xml:space="preserve">
<g id="Layer_5">
	<rect fill="#383838" width="512" height="512" />
</g>
    <g id="Layer_1_copy">
	<g opacity="0.47">
		<path stroke="#000000" stroke-width="18" stroke-miterlimit="10" d="M281.4,518.7c-7.01,4.12-17.28,3.46-24.73-1.72
			c-18.04-12.56-38.12-28.42-57.66-47.75c-26.91-26.63-44-51.14-54.8-70.27c-3.77-6.68,4.07-10.96,6.27-13.95
			c15.27-20.83,45.89-22.64,95.35-33.53c46.99-10.34,64.57-19.05,91.85-11.81c7.79,2.07,13.46,4.26,14.75,5.34
			c12.08,10.1,24.94,21.45,38.19,34.06c14.52,13.82,27.35,27.09,38.65,39.5c4.44,4.88,4.88,10.35,0.94,12.67L281.4,518.7z" />
        <path stroke="#000000" stroke-width="38" stroke-miterlimit="10" d="M425.68,433c35.95,35.24,45.2,82.64,20.39,109.04
			c-32.87,34.99-116.07,25.06-165.1-33.27" />
        <path fill="#FFFFFF" stroke="#000000" stroke-width="8" stroke-miterlimit="10" d="M304.47,423.77
			c-7.59-4.03-15.5-9.97-22.31-17.12c-15.28-16.05-18.66-31.45-8.13-34.51c10.13-2.94,29.68,6.67,44.18,21.54
			c6.46,6.63,10.96,13.29,13.23,19.06c6.19,1.73,12.24,5.12,16.79,9.79c9.2,9.43,9.06,20.95-0.74,25.84
			c-10.23,5.11-26.83,1.02-36.6-9.24C306.06,434.06,303.96,428.55,304.47,423.77z" />
	</g>
        <g id="Layer_2_copy">
	</g>
</g>
    <g id="Layer_1">
	<path fill="#65C48B" stroke="#D3D3D3" stroke-width="38" stroke-miterlimit="10" d="M380.58,184.48
		c8.7-0.12,12.68,196.97,8.54,200.01c-30.48,22.34-238.27,19.79-269.42-4.4c-9.22-7.16-9.99-191.96-0.25-192.09L380.58,184.48z" />
        <path fill="none" stroke="#D3D3D3" stroke-width="38" stroke-miterlimit="10" d="M127.51,195.94
		c-0.75-69.34,52.24-125.48,113.82-129.59c68.73-4.58,133.83,56.61,130.57,134.52" />
        <path fill="#FFFFFF" stroke="#000000" stroke-width="8" stroke-miterlimit="10" d="M271.9,278.42c3.66,7.77,5.86,17.75,5.86,28.66
		c0,24.74-11.33,44.79-25.3,44.79s-25.3-20.06-25.3-44.79c0-10.91,2.2-20.89,5.86-28.66c-4.93-4.94-7.97-11.76-7.97-19.3
		c0-15.13,12.27-27.4,27.4-27.4s27.4,12.27,27.4,27.4C279.87,266.66,276.84,273.48,271.9,278.42z" />
        <g id="Layer_2">
	</g>
        <text transform="matrix(1 0 0 1 167.1816 497.3633)" fill="#F2F2F2"
            font-family="'MyriadPro-Regular'" font-size="72px">******</text>
</g>
</svg>
