<?xml version="1.0" encoding="utf-8"?>
<!-- Generator: Adobe Illustrator 24.2.0, SVG Export Plug-In . SVG Version: 6.00 Build 0)  -->
<svg version="1.1" id="Layer_1" xmlns="http://www.w3.org/2000/svg" xmlns:xlink="http://www.w3.org/1999/xlink" x="0px" y="0px"
	 viewBox="0 0 512 512" style="enable-background:new 0 0 512 512;" xml:space="preserve">
<style type="text/css">
	.st0{fill:none;stroke:#999999;stroke-width:36;stroke-miterlimit:10;}
	.st1{fill:#65C48B;}
	.st2{fill:#FFFFFF;stroke:#000000;stroke-width:4;stroke-miterlimit:10;}
</style>
<g id="Layer_1_1_">
	<path class="st0" d="M-21.3,10.6C-23-146.4,97-273.5,236.4-282.8C392-293.1,539.4-154.6,532,21.8"/>
	<path class="st1" d="M594-21.2c22.8-0.3,33.3,517,22.4,525c-80,58.6-625.4,51.9-707.2-11.5C-115,473.4-117-11.7-91.4-12L594-21.2z"
		/>
	<path class="st2" d="M308.8,225.3c9.6,20.4,15.4,46.6,15.4,75.2c0,64.9-29.7,117.6-66.4,117.6s-66.4-52.7-66.4-117.6
		c0-28.6,5.8-54.8,15.4-75.2c-12.9-13-20.9-30.9-20.9-50.7c0-39.7,32.2-71.9,71.9-71.9s71.9,32.2,71.9,71.9
		C329.7,194.5,321.7,212.4,308.8,225.3z"/>
	<g id="Layer_2_1_">
	</g>
	<text transform="matrix(1 0 0 1 49.6548 1053.5962)" style="fill:#F2F2F2; font-family:'ArialMT'; font-size:188.9939px;">******</text>
</g>
</svg>
