<?xml version="1.0" encoding="utf-8"?>
<!-- Generator: Adobe Illustrator 24.1.2, SVG Export Plug-In . SVG Version: 6.00 Build 0)  -->
<svg version="1.1" id="Layer_1" xmlns="http://www.w3.org/2000/svg" xmlns:xlink="http://www.w3.org/1999/xlink" x="0px" y="0px"
	 viewBox="0 0 512 512" enable-background="new 0 0 512 512" xml:space="preserve">
<g id="Layer_5">
	<rect fill="#474747" width="512" height="512"/>
</g>
<g id="Layer_1_copy">
	<g opacity="0.47">
		<path stroke="#000000" stroke-width="18" stroke-miterlimit="10" d="M271.4,566.7c-7,4.1-17.3,3.5-24.7-1.7
			c-18-12.6-38.1-28.4-57.7-47.8c-26.9-26.6-44-51.1-54.8-70.3c-3.8-6.7,4.1-11,6.3-14c15.3-20.8,45.9-22.6,95.4-33.5
			c47-10.3,64.6-19,91.9-11.8c7.8,2.1,13.5,4.3,14.8,5.3c12.1,10.1,24.9,21.5,38.2,34.1c14.5,13.8,27.4,27.1,38.6,39.5
			c4.4,4.9,4.9,10.4,0.9,12.7L271.4,566.7z"/>
		<path stroke="#000000" stroke-width="38" stroke-miterlimit="10" d="M415.7,481c36,35.2,45.2,82.6,20.4,109
			C403.2,625,320,615.1,271,556.8"/>
		<path fill="#FFFFFF" stroke="#000000" stroke-width="8" stroke-miterlimit="10" d="M294.5,471.8c-7.6-4-15.5-10-22.3-17.1
			c-15.3-16-18.7-31.5-8.1-34.5c10.1-2.9,29.7,6.7,44.2,21.5c6.5,6.6,11,13.3,13.2,19.1c6.2,1.7,12.2,5.1,16.8,9.8
			c9.2,9.4,9.1,21-0.7,25.8c-10.2,5.1-26.8,1-36.6-9.2C296.1,482.1,294,476.5,294.5,471.8z"/>
	</g>
	<g id="Layer_2_copy">
	</g>
</g>
<g id="Layer_1_1_">
	<path fill="none" stroke="#999999" stroke-width="36" stroke-miterlimit="10" d="M127.8,196.8C127,123.5,183,64.1,248.1,59.8
		c72.6-4.8,141.5,59.8,138,142.2"/>
	<path fill="#65C48B" d="M415.1,181.9c10.7-0.1,15.5,241.4,10.5,245.1c-37.4,27.4-292,24.3-330.2-5.4
		c-11.3-8.8-12.2-235.2-0.3-235.4L415.1,181.9z"/>
	<path fill="#FFFFFF" d="M281.9,297c4.5,9.5,7.2,21.8,7.2,35.1c0,30.3-13.9,54.9-31,54.9s-31-24.6-31-54.9c0-13.4,2.7-25.6,7.2-35.1
		c-6-6.1-9.8-14.4-9.8-23.7c0-18.5,15-33.6,33.6-33.6s33.6,15,33.6,33.6C291.7,282.6,287.9,291,281.9,297z"/>
	<g id="Layer_2_1_">
	</g>
	<text transform="matrix(1 0 0 1 160.9256 683.6793)" fill="#F2F2F2" font-family="'ArialMT'" font-size="88.2312px">******</text>
</g>
</svg>
