<?xml version="1.0" encoding="utf-8"?>
<!-- Generator: Adobe Illustrator 24.1.2, SVG Export Plug-In . SVG Version: 6.00 Build 0)  -->
<svg version="1.1"
	 id="svg2" inkscape:version="0.91 r13725" sodipodi:docname="Netflix icon.svg" xmlns:cc="http://creativecommons.org/ns#" xmlns:dc="http://purl.org/dc/elements/1.1/" xmlns:inkscape="http://www.inkscape.org/namespaces/inkscape" xmlns:rdf="http://www.w3.org/1999/02/22-rdf-syntax-ns#" xmlns:sodipodi="http://sodipodi.sourceforge.net/DTD/sodipodi-0.dtd" xmlns:svg="http://www.w3.org/2000/svg"
	 xmlns="http://www.w3.org/2000/svg" xmlns:xlink="http://www.w3.org/1999/xlink" x="0px" y="0px" viewBox="0 0 48 48"
	 enable-background="new 0 0 48 48" xml:space="preserve">
<sodipodi:namedview  bordercolor="#666666" borderopacity="1.0" fit-margin-bottom="0" fit-margin-left="0" fit-margin-right="0" fit-margin-top="0" id="base" inkscape:current-layer="layer1" inkscape:cx="133.94373" inkscape:cy="222.84368" inkscape:document-units="px" inkscape:pageopacity="0.0" inkscape:pageshadow="2" inkscape:window-height="705" inkscape:window-maximized="1" inkscape:window-width="1366" inkscape:window-x="-8" inkscape:window-y="-8" inkscape:zoom="0.70710678" pagecolor="#ffffff" showgrid="false">
	</sodipodi:namedview>
<g id="layer1" transform="translate(12.494543,6.7556334)" inkscape:groupmode="layer" inkscape:label="Capa 1">
	<g id="g4182">
		<path id="rect4180" d="M-8.3-6.8h39.2c2.4,0,4.4,2,4.4,4.4v39.2c0,2.4-2,4.4-4.4,4.4H-8.3c-2.4,0-4.4-2-4.4-4.4V-2.3
			C-12.7-4.8-10.7-6.8-8.3-6.8z"/>
		<g id="g5747" transform="matrix(0.29074008,0,0,0.29074008,81.631476,113.77111)">
			
				<path id="path4155" inkscape:connector-curvature="0" fill-rule="evenodd" clip-rule="evenodd" fill="#B1060F" stroke="#000000" stroke-width="0.2326" stroke-miterlimit="10" d="
				M-233.1-387.9l0,24.7l0,24.7l-2-5.7c0,0,0,0,0,0l-2.6,55.1c2.6,7.3,4,11.2,4,11.2c0,0,1.5,0.1,3.3,0.2c5.4,0.3,12.1,0.8,17.2,1.5
				c1.2,0.1,2.2,0.2,2.2,0.2c0.1-0.1,0.1-25.3,0.1-56l0-55.9h-11H-233.1z"/>
			
				<path id="path4157" inkscape:connector-curvature="0" fill-rule="evenodd" clip-rule="evenodd" fill="#B1060F" stroke="#000000" stroke-width="0.2326" stroke-miterlimit="10" d="
				M-272.8-388v56c0,30.8,0,56,0.1,56s1.9-0.1,4.2-0.4c2.3-0.3,5.5-0.6,7-0.7c2.4-0.2,9.7-0.7,10.5-0.7c0.2,0,0.3-1.3,0.3-23.7
				l0-23.7l1.8,5c0.3,0.8,0.4,1,0.6,1.8l2.6-55.1c-0.6-1.6-0.3-0.7-0.9-2.6c-2.1-6.1-4-11.2-4.1-11.5l-0.1-0.4h-11H-272.8z"/>
			
				<radialGradient id="path5623_1_" cx="2808.6812" cy="-560.8456" r="54.3172" gradientTransform="matrix(7.072386e-02 -2.448786e-02 -0.897 -2.5906 -944.6745 -1716.7782)" gradientUnits="userSpaceOnUse">
				<stop  offset="0" style="stop-color:#000000"/>
				<stop  offset="1" style="stop-color:#000000;stop-opacity:0"/>
			</radialGradient>
			<path id="path5623" inkscape:connector-curvature="0" fill-rule="evenodd" clip-rule="evenodd" fill="url(#path5623_1_)" d="
				M-272.8-388v31.4l22.1,58.7c0-1.3,0-2.1,0-3.6l0-23.7l1.8,5c9.7,27.6,15,42.4,15,42.4c0,0,1.5,0.1,3.3,0.2
				c5.4,0.3,12.1,0.8,17.2,1.5c1.2,0.1,2.2,0.2,2.2,0.2c0,0,0.1-12.4,0.1-29.8l-22-63.3l0,6l0,24.7l-2-5.7c-2-5.6-3.3-9.4-11.3-32
				c-2.1-6.1-4-11.2-4.1-11.5l-0.1-0.4h-11H-272.8L-272.8-388z"/>
			<path id="path4159" inkscape:connector-curvature="0" fill-rule="evenodd" clip-rule="evenodd" fill="#E50914" d="M-272.8-388
				l22.2,62.8v0l1.8,5c9.7,27.6,15,42.4,15,42.4c0,0,1.5,0.1,3.3,0.2c5.4,0.3,12.1,0.8,17.2,1.5c1.2,0.1,2.2,0.2,2.2,0.2l-22-62.4v0
				l-2-5.7c-2-5.6-3.3-9.4-11.3-32c-2.1-6.1-4-11.2-4.1-11.5l-0.1-0.4h-11H-272.8L-272.8-388z"/>
			
				<path id="path5715" inkscape:connector-curvature="0" fill-rule="evenodd" clip-rule="evenodd" fill="#B1060F" stroke="#000000" stroke-width="0.2326" stroke-miterlimit="10" d="
				M-233.1-387.9l0,24.7l0,24.7l-2-5.7c0,0,0,0,0,0l-2.6,55.1c2.6,7.3,4,11.2,4,11.2c0,0,1.5,0.1,3.3,0.2c5.4,0.3,12.1,0.8,17.2,1.5
				c1.2,0.1,2.2,0.2,2.2,0.2c0.1-0.1,0.1-25.3,0.1-56l0-55.9h-11H-233.1z"/>
			
				<path id="path5717" inkscape:connector-curvature="0" fill-rule="evenodd" clip-rule="evenodd" fill="#B1060F" stroke="#000000" stroke-width="0.2326" stroke-miterlimit="10" d="
				M-272.8-388v56c0,30.8,0,56,0.1,56s1.9-0.1,4.2-0.4c2.3-0.3,5.5-0.6,7-0.7c2.4-0.2,9.7-0.7,10.5-0.7c0.2,0,0.3-1.3,0.3-23.7
				l0-23.7l1.8,5c0.3,0.8,0.4,1,0.6,1.8l2.6-55.1c-0.6-1.6-0.3-0.7-0.9-2.6c-2.1-6.1-4-11.2-4.1-11.5l-0.1-0.4h-11H-272.8z"/>
			
				<radialGradient id="path5719_1_" cx="2808.6812" cy="-560.8456" r="54.3172" gradientTransform="matrix(7.072386e-02 -2.448786e-02 -0.897 -2.5906 -944.6745 -1716.7782)" gradientUnits="userSpaceOnUse">
				<stop  offset="0" style="stop-color:#000000"/>
				<stop  offset="1" style="stop-color:#000000;stop-opacity:0"/>
			</radialGradient>
			<path id="path5719" inkscape:connector-curvature="0" fill-rule="evenodd" clip-rule="evenodd" fill="url(#path5719_1_)" d="
				M-272.8-388v31.4l22.1,58.7c0-1.3,0-2.1,0-3.6l0-23.7l1.8,5c9.7,27.6,15,42.4,15,42.4c0,0,1.5,0.1,3.3,0.2
				c5.4,0.3,12.1,0.8,17.2,1.5c1.2,0.1,2.2,0.2,2.2,0.2c0,0,0.1-12.4,0.1-29.8l-22-63.3l0,6l0,24.7l-2-5.7c-2-5.6-3.3-9.4-11.3-32
				c-2.1-6.1-4-11.2-4.1-11.5l-0.1-0.4h-11H-272.8L-272.8-388z"/>
			<path id="path5721" inkscape:connector-curvature="0" fill-rule="evenodd" clip-rule="evenodd" fill="#E50914" d="M-272.8-388
				l22.2,62.8v0l1.8,5c9.7,27.6,15,42.4,15,42.4c0,0,1.5,0.1,3.3,0.2c5.4,0.3,12.1,0.8,17.2,1.5c1.2,0.1,2.2,0.2,2.2,0.2l-22-62.4v0
				l-2-5.7c-2-5.6-3.3-9.4-11.3-32c-2.1-6.1-4-11.2-4.1-11.5l-0.1-0.4h-11H-272.8L-272.8-388z"/>
		</g>
	</g>
</g>
</svg>
