<?xml version="1.0" encoding="utf-8"?>
<!-- Generator: Adobe Illustrator 24.1.2, SVG Export Plug-In . SVG Version: 6.00 Build 0)  -->
<svg version="1.2" baseProfile="tiny" id="Layer_1" xmlns="http://www.w3.org/2000/svg" xmlns:xlink="http://www.w3.org/1999/xlink"
	 x="0px" y="0px" viewBox="0 0 48 48" overflow="visible" xml:space="preserve">
<g>
	<g id="XMLID_1_">
		<g>
			<path fill="#FF3F18" d="M23.5,1.1c13.3-0.3,24.2,10.6,23.9,24C47.1,37.4,37,47.9,23.8,47.8c-12.6-0.1-23-10.3-23.1-23.3
				C0.8,11.5,11.1,1.4,23.5,1.1z M40.5,23.8c1.2-0.9,2-2.1,1.8-3.7c-0.1-1.6-0.9-2.7-2.4-3.4c-1.6-0.7-3-0.5-4.4,0.6
				c-0.2,0.1-0.2,0.1-0.4,0c-2.5-1.6-5.2-2.5-8.1-2.8c-0.3,0-0.7-0.1-1-0.1c0.6-2,1.3-3.9,1.9-5.9c0.2,0,0.3,0,0.4,0.1
				c1.5,0.3,3,0.7,4.5,1c0.3,0.1,0.5,0.2,0.6,0.5c0.4,1.5,2,2.5,3.5,2.3c2.1-0.3,3.3-2.6,2.3-4.5c-0.8-1.5-3.4-2.4-5.1-0.4
				c-0.2,0.2-0.3,0.2-0.5,0.2c-2-0.4-3.9-0.8-5.9-1.3c-0.8-0.2-1.2,0-1.4,0.8c-0.7,2.2-1.4,4.5-2.1,6.7c-0.1,0.2-0.1,0.3-0.4,0.3
				c-1.3,0-2.6,0.2-3.9,0.4c-2.3,0.5-4.5,1.4-6.4,2.7c-0.2,0.1-0.3,0.1-0.5,0c-0.7-0.3-1.3-0.7-2-0.9c-2.4-0.6-5.3,1.3-4.8,4.6
				c0.2,1.3,1,2.2,2,2.9c0.2,0.1,0.2,0.2,0.2,0.4c-0.3,1.8-0.1,3.5,0.6,5.1c1,2.3,2.7,4,4.9,5.4c2.4,1.5,5.1,2.3,7.9,2.6
				c2.5,0.3,4.9,0.2,7.3-0.4c3.5-0.8,6.5-2.3,8.9-5c1.9-2.2,2.7-4.7,2.3-7.5C40.1,24.2,40.2,24,40.5,23.8z"/>
			<path fill="#FFFFFF" d="M42.3,20.1c0.1,1.6-0.6,2.8-1.8,3.7c-0.3,0.2-0.4,0.4-0.3,0.8c0.4,2.9-0.4,5.4-2.3,7.5
				c-2.4,2.7-5.5,4.2-8.9,5c-2.4,0.5-4.8,0.7-7.3,0.4c-2.8-0.4-5.5-1.1-7.9-2.6c-2.1-1.3-3.8-3-4.9-5.4c-0.7-1.6-0.9-3.3-0.6-5.1
				c0-0.2,0-0.3-0.2-0.4c-1-0.7-1.8-1.6-2-2.9c-0.5-3.3,2.4-5.2,4.8-4.6c0.7,0.2,1.4,0.6,2,0.9c0.2,0.1,0.3,0.1,0.5,0
				c2-1.3,4.1-2.2,6.4-2.7c1.3-0.3,2.6-0.5,3.9-0.4c0.3,0,0.3-0.1,0.4-0.3c0.7-2.2,1.4-4.5,2.1-6.7c0.2-0.8,0.6-1,1.4-0.8
				c2,0.4,3.9,0.8,5.9,1.3c0.2,0.1,0.4,0,0.5-0.2c1.7-1.9,4.2-1,5.1,0.4c1,1.8-0.1,4.1-2.3,4.5c-1.6,0.2-3.1-0.7-3.5-2.3
				c-0.1-0.3-0.2-0.4-0.6-0.5c-1.5-0.3-3-0.6-4.5-1c-0.1,0-0.2,0-0.4-0.1c-0.6,2-1.3,3.9-1.9,5.9c0.4,0,0.7,0.1,1,0.1
				c2.9,0.3,5.7,1.2,8.1,2.8c0.2,0.1,0.2,0.1,0.4,0c1.3-1.1,2.8-1.3,4.4-0.6C41.4,17.4,42.2,18.5,42.3,20.1z M29.8,26.4
				c1.3,0,2.5-1.2,2.5-2.5c0-1.4-1.1-2.5-2.5-2.5c-1.3,0-2.5,1.1-2.5,2.4C27.3,25.2,28.5,26.4,29.8,26.4z M30.4,31.1
				c0.3-0.3,0.2-0.7,0-1c-0.4-0.4-0.8-0.5-1.2-0.3c-0.1,0.1-0.3,0.2-0.4,0.3c-2.5,1.5-5.1,1.8-7.8,0.6c-0.6-0.2-1.1-0.6-1.6-0.9
				c-0.4-0.2-0.9-0.1-1.2,0.2c-0.2,0.2-0.3,0.7,0,1c0.1,0.2,0.3,0.4,0.5,0.5c1.7,1.2,3.6,1.7,5.8,1.7c0.2,0,0.6,0,1-0.1
				c1.4-0.1,2.7-0.5,3.9-1.2C29.7,31.8,30.1,31.5,30.4,31.1z M18.7,26.4c1.2,0,2.4-1.2,2.4-2.5c0-1.4-1.1-2.5-2.5-2.5
				c-1.3,0-2.5,1.1-2.5,2.5C16.2,25.3,17.3,26.4,18.7,26.4z"/>
			<path fill="#FF3F18" d="M32.3,23.9c0,1.3-1.2,2.5-2.5,2.5c-1.4,0-2.5-1.1-2.5-2.5c0-1.3,1.1-2.4,2.5-2.4
				C31.2,21.4,32.3,22.6,32.3,23.9z"/>
			<path fill="#FF3F18" d="M30.3,30.1c0.3,0.3,0.3,0.6,0,1c-0.3,0.4-0.7,0.7-1.2,1c-1.2,0.7-2.5,1.1-3.9,1.2c-0.4,0-0.8,0.1-1,0.1
				c-2.2,0-4.1-0.5-5.8-1.7c-0.2-0.1-0.4-0.3-0.5-0.5c-0.2-0.3-0.2-0.8,0-1c0.4-0.4,0.9-0.5,1.2-0.2c0.5,0.3,1,0.6,1.6,0.9
				c2.7,1.1,5.3,0.9,7.8-0.6c0.1-0.1,0.3-0.2,0.4-0.3C29.5,29.6,30,29.7,30.3,30.1z"/>
			<path fill="#FF3F18" d="M21.1,23.9c0,1.2-1.2,2.5-2.4,2.5c-1.4,0-2.5-1.1-2.6-2.5c0-1.3,1.1-2.5,2.5-2.5
				C20,21.4,21.1,22.6,21.1,23.9z"/>
		</g>
	</g>
</g>
</svg>
