<?xml version="1.0" encoding="utf-8"?><!-- Generator: Adobe Illustrator 24.1.2, SVG Export Plug-In . SVG Version: 6.00 Build 0)  -->
<svg version="1.2" baseProfile="tiny" id="Layer_1" xmlns="http://www.w3.org/2000/svg"
    xmlns:xlink="http://www.w3.org/1999/xlink" x="0px" y="0px" viewBox="0 0 48 48"
    overflow="visible" xml:space="preserve">
<path fill="#1ED760" d="M24,0.1C10.8,0.1,0.1,10.8,0.1,24S10.8,47.9,24,47.9S47.9,37.2,47.9,24S37.2,0.1,24,0.1L24,0.1z M34.9,34.6
	c-0.4,0.7-1.3,0.9-2,0.5c-5.6-3.4-12.7-4.2-21-2.3c-0.8,0.2-1.6-0.3-1.8-1.1c-0.2-0.8,0.3-1.6,1.1-1.8c9.1-2.1,16.9-1.2,23.2,2.7
	C35.2,32.9,35.4,33.9,34.9,34.6z M37.9,28.1c-0.5,0.9-1.7,1.2-2.6,0.6c-6.4-3.9-16.2-5.1-23.8-2.8c-1,0.3-2-0.3-2.3-1.2
	c-0.3-1,0.3-2,1.2-2.3c8.7-2.6,19.4-1.4,26.8,3.2C38.1,26,38.4,27.2,37.9,28.1L37.9,28.1z M38.1,21.3c-7.7-4.6-20.4-5-27.7-2.8
	C9.2,18.9,8,18.2,7.6,17s0.3-2.4,1.5-2.8c8.4-2.6,22.4-2.1,31.3,3.2c1.1,0.6,1.4,2,0.8,3.1S39.2,21.9,38.1,21.3L38.1,21.3z" />
</svg>
