<?xml version="1.0" encoding="utf-8"?><!-- Generator: Adobe Illustrator 24.1.2, SVG Export Plug-In . SVG Version: 6.00 Build 0)  -->
<svg version="1.0" id="Layer_1" xmlns="http://www.w3.org/2000/svg"
    xmlns:xlink="http://www.w3.org/1999/xlink" x="0px" y="0px" viewBox="0 0 48 48"
    enable-background="new 0 0 48 48" xml:space="preserve">
<linearGradient id="SVGID_1_" gradientUnits="userSpaceOnUse" x1="2.5915" y1="-0.509" x2="2.5915"
    y2="-0.3099" gradientTransform="matrix(232.75 0 0 233 -579.1239 119)">
	<stop offset="0" style="stop-color:#111D2E" />
    <stop offset="0.2125" style="stop-color:#051839" />
    <stop offset="0.4069" style="stop-color:#0A1B48" />
    <stop offset="0.5811" style="stop-color:#132E62" />
    <stop offset="0.7376" style="stop-color:#144B7E" />
    <stop offset="0.8728" style="stop-color:#136497" />
    <stop offset="1" style="stop-color:#1387B8" />
</linearGradient>
    <path fill="url(#SVGID_1_)" d="M1.8,30.2C4.6,39.8,13.5,46.8,24,46.8c12.8,0,23.2-10.4,23.2-23.2S36.8,0.4,24,0.4
	C11.7,0.4,1.6,10,0.9,22C2.4,24.6,2.9,26.1,1.8,30.2L1.8,30.2z" />
    <path fill="#FFFFFF" d="M22.8,17.8v0.1l-5.7,8.2c-0.9,0-1.8,0.1-2.7,0.5c-0.4,0.2-0.7,0.4-1.1,0.6L0.9,22.1c0,0-0.3,4.7,0.9,8.3
	l8.8,3.6c0.4,2,1.8,3.7,3.8,4.5c3.3,1.4,7-0.2,8.4-3.5c0.4-0.9,0.5-1.8,0.5-2.6l8.1-5.8c0.1,0,0.1,0,0.2,0c4.9,0,8.8-4,8.8-8.8
	c0-4.9-3.9-8.8-8.8-8.8C26.7,9,22.8,12.9,22.8,17.8z M21.4,34.5c-1.1,2.5-4,3.7-6.5,2.7c-1.2-0.5-2-1.4-2.6-2.4l2.9,1.2
	c1.9,0.8,4-0.1,4.8-2c0.8-1.9-0.1-4-2-4.8L15,28c1.1-0.4,2.4-0.4,3.7,0.1c1.2,0.5,2.2,1.5,2.7,2.7C21.9,31.9,21.9,33.3,21.4,34.5
	 M31.6,23.7c-3.2,0-5.9-2.6-5.9-5.9c0-3.2,2.6-5.9,5.9-5.9c3.2,0,5.9,2.6,5.9,5.9C37.5,21,34.8,23.7,31.6,23.7 M27.2,17.8
	c0-2.4,2-4.4,4.4-4.4s4.4,2,4.4,4.4s-2,4.4-4.4,4.4C29.2,22.2,27.2,20.2,27.2,17.8z" />
</svg>
