<?xml version="1.0" encoding="utf-8"?><!-- Generator: Adobe Illustrator 24.1.2, SVG Export Plug-In . SVG Version: 6.00 Build 0)  -->
<svg version="1.1" baseProfile="tiny" id="Layer_1" xmlns="http://www.w3.org/2000/svg"
    xmlns:xlink="http://www.w3.org/1999/xlink" x="0px" y="0px" viewBox="0 0 48 48"
    overflow="visible" xml:space="preserve">
<g>
	<path fill="#55ACEE" d="M47.5,10.6c-1.7,0.8-3.6,1.3-5.5,1.5c2-1.2,3.5-3.1,4.2-5.3c-1.9,1.1-3.9,1.9-6.1,2.3c-1.8-1.9-4.3-3-7-3
		c-5.3,0-9.6,4.3-9.6,9.6c0,0.8,0.1,1.5,0.2,2.2c-8-0.4-15.1-4.2-19.8-10.1C3,9.3,2.5,11,2.5,12.7c0,3.3,1.7,6.3,4.3,8
		c-1.6,0-3.1-0.5-4.4-1.2v0.1c0,4.7,3.3,8.6,7.7,9.4c-0.8,0.2-1.7,0.3-2.5,0.3c-0.6,0-1.2-0.1-1.8-0.2c1.2,3.8,4.8,6.6,9,6.7
		c-3.3,2.6-7.4,4.1-12,4.1c-0.8,0-1.5,0-2.3-0.1c4.3,2.7,9.3,4.3,14.8,4.3c17.7,0,27.4-14.7,27.4-27.4c0-0.4,0-0.8,0-1.2
		C44.5,14.3,46.2,12.6,47.5,10.6" />
</g>
</svg>
